<svg id="Capa_2" data-name="Capa 2" xmlns="http://www.w3.org/2000/svg" viewBox="0 0 104.53 131.39"><title>Dt_logo</title><path d="M813,648.8V640a34.69,34.69,0,0,0-9.67-23.67l-.82-.82-.82.82A34.68,34.68,0,0,0,792,640v8.78c-5.17,1.85-8.17,7.69-8.17,13.38v2.06l1.77-1.06a19.13,19.13,0,0,1,6.4-2.26v1.26h3.5v4.67h14v-4.67H813v-1.26a19.15,19.15,0,0,1,6.4,2.26l1.77,1.06v-2.06C821.19,656.49,818.19,650.65,813,648.8Zm-21,9.77a19,19,0,0,0-5.7,1.64c.52-3.79,2.54-7.32,5.7-8.86Zm10.5-39.65a35.15,35.15,0,0,1,6.67,11.77H795.85A35.36,35.36,0,0,1,802.52,618.92Zm4.67,45.6h-9.33v-2.33h9.33Zm3.5-4.67H794.36V640a29.77,29.77,0,0,1,.84-7h14.64a29.81,29.81,0,0,1,.84,7Zm2.33-1.28v-7.23c3.15,1.54,5.17,5.08,5.7,8.86A19.05,19.05,0,0,0,813,658.58Z" transform="translate(-748.27 -615.53)" style="fill:#4be077"/><path d="M802.52,635.36a4.67,4.67,0,1,0,4.67,4.67A4.67,4.67,0,0,0,802.52,635.36Zm0,7a2.33,2.33,0,1,1,2.33-2.33A2.34,2.34,0,0,1,802.52,642.36Z" transform="translate(-748.27 -615.53)" style="fill:#4be077"/><path d="M830.61,683.05a2.62,2.62,0,0,0-1.63.52,2.07,2.07,0,0,0-.69,1.76v1.81H832V691h-3.72v11.67H823.8V691h-2.75v-3.82h2.75v-1.88a6.12,6.12,0,0,1,1.63-4.46,5.81,5.81,0,0,1,4.37-1.68,5.58,5.58,0,0,1,2.21.34v3.75A5,5,0,0,0,830.61,683.05Z" transform="translate(-748.27 -615.53)" style="fill:#00297c"/><path d="M801.39,683.3a1,1,0,0,1-.93-.64c0-.12-1.3-3-5.93-3-4.8,0-6.6,3-6.62,3a1,1,0,0,1-1.86-.51c0-4.28-3.67-7.5-8.54-7.5H764.32v-2H777.5c5.05,0,9.17,3,10.26,7.26a10.37,10.37,0,0,1,6.77-2.25,9,9,0,0,1,5.86,1.86v-10h2V682.3a1,1,0,0,1-.82,1Z" transform="translate(-748.27 -615.53)" style="fill:#4be077"/><path d="M805.42,683.3l-.18,0a1,1,0,0,1-.82-1V669.49h2v10a8.91,8.91,0,0,1,5.78-1.82,10.37,10.37,0,0,1,6.77,2.25c1.09-4.21,5.21-7.26,10.26-7.26H832v2h-2.79c-4.87,0-8.54,3.23-8.54,7.5a1,1,0,0,1-1.86.51c-.07-.12-1.88-3-6.62-3s-5.8,2.91-5.85,3A1,1,0,0,1,805.42,683.3Z" transform="translate(-748.27 -615.53)" style="fill:#4be077"/><path d="M800.65,746.91a52.79,52.79,0,0,1-10.17-1,52.25,52.25,0,0,1-11.11-99,1,1,0,0,1,.81,1.83,50.26,50.26,0,1,0,56.59,11.11,1,1,0,0,1,1.44-1.38,52.27,52.27,0,0,1-37.55,88.49Z" transform="translate(-748.27 -615.53)" style="fill:#4be077"/><path d="M830.77,683.28a2.62,2.62,0,0,0-1.63.52,2.07,2.07,0,0,0-.69,1.76v1.81h3.72v3.82h-3.72v11.67H824V691.19h-2.75v-3.82H824v-1.88a6.12,6.12,0,0,1,1.63-4.46,5.81,5.81,0,0,1,4.37-1.68,5.58,5.58,0,0,1,2.21.34v3.75A5,5,0,0,0,830.77,683.28Z" transform="translate(-748.27 -615.53)" style="fill:#00297c"/><path d="M772.8,702.63h-8.48V678.87h8.51a11.62,11.62,0,0,1,8.47,3.18q3.27,3.19,3.27,8.72a11.53,11.53,0,0,1-3.28,8.68A11.67,11.67,0,0,1,772.8,702.63Zm-3.85-4.29h3.69a7.08,7.08,0,0,0,5.13-1.94,8.92,8.92,0,0,0,0-11.28,7,7,0,0,0-5.1-2h-3.72Z" transform="translate(-748.27 -615.53)" style="fill:#00297c"/><path d="M798.42,696.8l3.72,1.11a7.11,7.11,0,0,1-2.63,3.75,7.88,7.88,0,0,1-4.88,1.48,8.36,8.36,0,0,1-6-2.4,9.42,9.42,0,0,1-.07-12.67,7.76,7.76,0,0,1,5.7-2.43,7.85,7.85,0,0,1,6,2.28,8.75,8.75,0,0,1,2.16,6.27c0,.18,0,.38,0,.6s0,.4,0,.54l0,.23h-11.8a3.66,3.66,0,0,0,1.27,2.68,4.2,4.2,0,0,0,2.88,1.07A3.61,3.61,0,0,0,798.42,696.8Zm-7.81-4.29H798a3.44,3.44,0,0,0-1-2.31,3.62,3.62,0,0,0-2.7-.94,3.53,3.53,0,0,0-2.61,1A3.39,3.39,0,0,0,790.61,692.51Z" transform="translate(-748.27 -615.53)" style="fill:#00297c"/><path d="M804.89,698.14a4.39,4.39,0,0,1,1.37-3.39,6.54,6.54,0,0,1,3.55-1.61l4.06-.6q1.24-.17,1.24-1.17a1.92,1.92,0,0,0-.72-1.54,3.71,3.71,0,0,0-4.29.17,2.87,2.87,0,0,0-.92,1.91l-4-.84a5.8,5.8,0,0,1,2.11-3.79,7.27,7.27,0,0,1,5-1.64q3.69,0,5.43,1.76a6.14,6.14,0,0,1,1.74,4.51V700a15.21,15.21,0,0,0,.2,2.61h-4.09a9.27,9.27,0,0,1-.17-2,5.38,5.38,0,0,1-4.86,2.45,5.73,5.73,0,0,1-4.11-1.47A4.64,4.64,0,0,1,804.89,698.14Zm6.6,1.64a3.82,3.82,0,0,0,2.6-.89,3.7,3.7,0,0,0,1-2.93v-.74l-3.72.57q-2,.3-2,2.08a1.83,1.83,0,0,0,.57,1.36A2.17,2.17,0,0,0,811.5,699.78Z" transform="translate(-748.27 -615.53)" style="fill:#00297c"/><path d="M773,702.86h-8.48V679.1H773a11.62,11.62,0,0,1,8.47,3.18q3.27,3.19,3.27,8.72a11.53,11.53,0,0,1-3.28,8.68A11.67,11.67,0,0,1,773,702.86Zm-3.85-4.29h3.69a7.08,7.08,0,0,0,5.13-1.94,8.92,8.92,0,0,0,0-11.28,7,7,0,0,0-5.1-2h-3.72Z" transform="translate(-748.27 -615.53)" style="fill:#00297c"/><path d="M798.58,697l3.72,1.11a7.11,7.11,0,0,1-2.63,3.75,7.88,7.88,0,0,1-4.88,1.48,8.36,8.36,0,0,1-6-2.4,9.42,9.42,0,0,1-.07-12.67,7.76,7.76,0,0,1,5.7-2.43,7.85,7.85,0,0,1,6,2.28,8.75,8.75,0,0,1,2.16,6.27c0,.18,0,.38,0,.6s0,.4,0,.54l0,.23h-11.8a3.66,3.66,0,0,0,1.27,2.68,4.2,4.2,0,0,0,2.88,1.07A3.61,3.61,0,0,0,798.58,697Zm-7.81-4.29h7.38a3.44,3.44,0,0,0-1-2.31,3.62,3.62,0,0,0-2.7-.94,3.53,3.53,0,0,0-2.61,1A3.39,3.39,0,0,0,790.77,692.74Z" transform="translate(-748.27 -615.53)" style="fill:#00297c"/><path d="M805,698.37a4.39,4.39,0,0,1,1.37-3.39,6.54,6.54,0,0,1,3.55-1.61l4.06-.6q1.24-.17,1.24-1.17a1.92,1.92,0,0,0-.72-1.54,3.71,3.71,0,0,0-4.29.17,2.87,2.87,0,0,0-.92,1.91l-4-.84a5.8,5.8,0,0,1,2.11-3.79,7.27,7.27,0,0,1,5-1.64q3.69,0,5.43,1.76a6.14,6.14,0,0,1,1.74,4.51v8.11a15.21,15.21,0,0,0,.2,2.61h-4.09a9.27,9.27,0,0,1-.17-2,5.38,5.38,0,0,1-4.86,2.45,5.73,5.73,0,0,1-4.11-1.47A4.64,4.64,0,0,1,805,698.37Zm6.6,1.64a3.82,3.82,0,0,0,2.6-.89,3.7,3.7,0,0,0,1-2.93v-.74l-3.72.57q-2,.3-2,2.08a1.83,1.83,0,0,0,.57,1.36A2.17,2.17,0,0,0,811.65,700Z" transform="translate(-748.27 -615.53)" style="fill:#00297c"/><path d="M782.73,708.31h-7.1v18.33h-4.41V708.31h-7.1v-4.15h18.62Z" transform="translate(-748.27 -615.53)" style="fill:#00297c"/><path d="M792.95,721.12l3.52,1a6.72,6.72,0,0,1-2.49,3.55,7.46,7.46,0,0,1-4.61,1.4,7.91,7.91,0,0,1-5.71-2.27,8.92,8.92,0,0,1-.06-12,7.35,7.35,0,0,1,5.39-2.3,7.43,7.43,0,0,1,5.66,2.16,8.27,8.27,0,0,1,2,5.93q0,.25,0,.57c0,.21,0,.38,0,.51l0,.22H785.46a3.46,3.46,0,0,0,1.21,2.54,4,4,0,0,0,2.73,1A3.42,3.42,0,0,0,792.95,721.12Zm-7.39-4.06h7a3.24,3.24,0,0,0-.94-2.19A3.42,3.42,0,0,0,789,714a3.35,3.35,0,0,0-2.47,1A3.2,3.2,0,0,0,785.56,717.06Z" transform="translate(-748.27 -615.53)" style="fill:#00297c"/><path d="M807,714.46a3.78,3.78,0,0,0-2.82,1.17,5.06,5.06,0,0,0,0,6.42,3.81,3.81,0,0,0,2.84,1.19,3.48,3.48,0,0,0,2.38-.78,3.89,3.89,0,0,0,1.21-1.86l3.71,1.24a7.07,7.07,0,0,1-2.47,3.71,7.37,7.37,0,0,1-4.82,1.55,8.07,8.07,0,0,1-8.21-8.28,8.07,8.07,0,0,1,2.33-5.93,7.79,7.79,0,0,1,5.76-2.35,7.52,7.52,0,0,1,4.88,1.54,6.82,6.82,0,0,1,2.44,3.73l-3.77,1.27A3.3,3.3,0,0,0,807,714.46Z" transform="translate(-748.27 -615.53)" style="fill:#00297c"/><path d="M821.68,717.47v9.17h-4.22v-23h4.22v8.66a5.18,5.18,0,0,1,4.22-1.71,5.37,5.37,0,0,1,4.33,1.73,6.62,6.62,0,0,1,1.47,4.46v9.83h-4.22v-9.1a3.4,3.4,0,0,0-.71-2.25,3.06,3.06,0,0,0-4.25,0A3.38,3.38,0,0,0,821.68,717.47Z" transform="translate(-748.27 -615.53)" style="fill:#00297c"/></svg>